<svg version="1.2" xmlns="http://www.w3.org/2000/svg" viewBox="0 0 475 500" width="475" height="500">
	<title>HomeWizard Energy Logo</title>
	<defs>
		<clipPath clipPathUnits="userSpaceOnUse" id="cp1">
			<path d="m552.58 417.86h-60.58v-341.91h60.58v122.99q15.41-12.84 35.17-21.32 19.77-8.48 42.88-8.48 21.56 0 37.22 6.42 15.66 6.43 25.93 17.73 10.27 11.31 15.14 26.72 4.88 15.42 4.88 33.92v163.93h-60.58v-152.11q0-26.21-10.53-37.77-10.52-11.56-31.06-11.56-14.89 0-30.29 7.19-15.41 7.2-28.76 20.04zm448.74-123.84q0 30.32-9.5 54.47-9.5 24.15-26.44 40.6-16.94 16.44-39.53 25.18-22.6 8.73-48.78 8.73-26.18 0-48.52-8.22-22.33-8.22-38.76-23.9-16.43-15.67-25.67-38.79-9.25-23.13-9.25-52.94 0-30.83 9.5-55.24 9.5-24.41 26.44-40.85 16.95-16.45 39.54-25.18 22.59-8.74 48.77-8.74 26.19 0 48.52 7.97 22.34 7.96 38.77 23.89 16.43 15.93 25.67 39.06 9.24 23.12 9.24 53.96zm-62.64 2.57q0-22.1-5.13-37.78-5.14-15.67-13.61-25.43-8.47-9.77-19.51-14.39-11.04-4.63-22.85-4.63-11.81 0-22.59 3.86-10.78 3.85-18.99 13.36-8.22 9.51-13.35 25.44-5.14 15.93-5.14 39.57 0 21.58 5.14 36.74 5.13 15.16 13.6 25.18 8.47 10.02 19.51 14.64 11.04 4.63 22.85 4.63 11.3 0 22.33-4.11 11.04-4.11 19.26-13.36 8.21-9.25 13.35-24.93 5.13-15.67 5.13-38.79zm163.78 121.27h-60.58v-244.09h46.72l7.7 32.37q16.95-16.96 36.46-26.98 19.51-10.02 45.18-10.02 25.67 0 43.13 10.02 17.45 10.02 26.18 28.52 17.46-17.98 38.51-28.26 21.05-10.28 46.21-10.28 38.5 0 58.53 21.07 20.02 21.07 20.02 60.13v167.52h-60.58v-159.3q0-19.53-9.25-30.84-9.24-11.3-28.23-11.3-14.89 0-29.78 7.19-14.89 7.2-26.7 20.56 0.51 3.6 0.51 6.42c0 1.89 0 164.87 0 167.27h-60.58v-159.3q0-19.53-9.24-30.84-9.25-11.3-28.24-11.3-14.89 0-29.52 7.96-14.64 7.97-26.45 21.84zm576.07-108.43h-165.84v2.06q0 33.4 20.8 49.85 20.79 16.44 54.68 16.44 20.02 0 35.68-3.6 15.66-3.59 30.03-9.76l11.81 42.65q-14.89 6.68-35.42 11.31-20.54 4.62-47.75 4.62-27.21 0-51.09-7.19-23.87-7.2-41.84-22.61-17.97-15.42-28.5-39.06-10.52-23.64-10.52-56.53 0-28.77 8.73-52.41 8.72-23.64 24.64-40.6 15.92-16.96 38.51-26.21 22.59-9.25 49.8-9.25 48.78 0 77.53 29.81 28.75 29.8 28.75 82.73zm-62.13-42.14q0-10.79-2.56-20.81-2.57-10.02-8.22-17.73-5.64-7.71-14.63-12.07-8.98-4.37-21.31-4.37-23.1 0-37.99 15.42-14.89 15.41-17.97 40.59zm72.39-93.53h63.67l34.4 137.73 9.24 60.64h2.05l10.78-60.64 34.4-137.73h64.18l34.4 137.73 10.78 60.64h2.06l10.78-60.64 33.89-137.73h61.61l-69.83 244.1h-70.34l-34.91-137.72-10.78-59.1-11.81 59.1-34.92 137.72h-69.31zm404.07 244.1v-244.1h60.58v244.1zm30.3-300.11q-15.92 0-24.91-9.25-8.98-9.25-8.98-23.13 0-13.36 9.24-22.87 9.24-9.5 24.65-9.5 14.88 0 24.13 9.25 9.24 9.25 9.24 23.12 0 13.88-9.24 23.13-9.25 9.25-24.13 9.25zm257.74 92.5l-118.61 163.41h121.17v44.2h-190.99v-38.03l119.11-161.87h-111.41v-44.2h180.73zm39.53-14.9q22.59-12.33 45.69-19.27 23.11-6.94 50.83-6.94 21.57 0 39.02 4.88 17.46 4.88 30.3 15.68 12.83 10.79 19.76 28 6.93 17.22 6.93 41.88v158.28h-47.74l-6.17-25.69h-1.54q-26.18 30.83-74.44 30.83-38.51 0-60.07-20.3-21.57-20.3-21.57-52.67 0-20.56 8.73-35.46 8.73-14.9 23.88-24.67 15.14-9.76 36.19-14.64 21.05-4.88 45.7-4.88h35.94v-16.96q0-20.04-11.81-28.52-11.81-8.48-31.83-8.48-14.38 0-30.55 4.62-16.18 4.63-35.69 15.93zm131.95 113.57l-27.72 1.03q-33.89 1.03-47.24 11.56-13.35 10.54-13.35 25.44 0 19.01 11.3 25.7 11.3 6.68 26.19 6.68 14.88 0 28.49-7.46 13.61-7.45 22.33-20.81zm501.62-235.53v344.48h-45.18l-6.67-26.73h-2.06q-11.81 13.88-28.75 22.87-16.94 9-43.64 9-21.56 0-41.07-8.23-19.51-8.22-34.15-24.41-14.63-16.18-23.1-39.82-8.47-23.64-8.47-54.48 0-28.77 7.44-52.15 7.45-23.39 21.82-40.09 14.38-16.7 35.17-25.69 20.8-9 46.98-9 17.97 0 34.14 5.4 16.18 5.4 26.96 15.16v-116.31zm-261.85 95.75q12.32 0 21.56 2.57 9.25 2.57 15.41 5.66l-10.27 49.33q-5.65-3.08-13.86-5.4-8.22-2.31-20.03-2.31-26.18 0-44.15 17.99-17.97 17.98-17.97 57.04v123.85h-60.07v-244.1h46.72l7.7 45.74q8.73-21.07 27.73-35.72 18.99-14.65 47.23-14.65zm154.54 44.71q-12.83 0-24.39 4.37-11.55 4.37-20.53 14.13-8.99 9.77-14.38 25.18-5.39 15.42-5.39 37 0 21.59 4.88 37.52 4.88 15.93 13.09 25.95 8.21 10.02 19.25 14.9 11.04 4.88 23.36 4.88 16.95 0 29.78-7.96 12.84-7.97 21.05-20.81v-112.55q-8.72-10.27-20.53-16.44-11.81-6.17-26.19-6.17z"/>
		</clipPath>
		<clipPath clipPathUnits="userSpaceOnUse" id="cp2">
			<path d="m354.26 25c21.43 0 33.44 24.67 20.21 41.51l-87.15 110.99h66.94c22.31 0 33.92 26.38 19.13 42.79l-0.45 0.5-230.24 243.54c-12.92 13.67-34.49 14.29-48.17 1.37-9.74-9.19-13.18-23.23-8.8-35.88l48.89-141.31h-62.9c-19.57 0-31.88-20.96-22.53-37.98l0.29-0.52 99.23-171.75c19.05-32.96 54.24-53.26 92.32-53.26zm-52.8 51.33h-60.44c-19.73 0-37.96 10.52-47.82 27.59l-76.99 133.26h54.47c17.47 0 29.79 17.04 24.44 33.55l-0.17 0.5-34.42 99.49 134.13-141.89h-60.14c-21.21 0-33.19-24.18-20.6-41l0.39-0.51z"/>
		</clipPath>
		<linearGradient id="g1" x2="1" gradientUnits="userSpaceOnUse" gradientTransform="matrix(181.395,443.631,-497.05,203.237,121.001,25)">
			<stop offset="0" stop-color="#b8ff58"/>
			<stop offset="1" stop-color="#02bafd"/>
		</linearGradient>
	</defs>
	<style>
		.s0 { fill: #101828 } 
		.s1 { fill: url(#g1) } 
	</style>
	<g id="HomeWizard-logo">
		<g id="HW_logo_black">
			<g id="Group-3">
				<g id="Clip-2">
				</g>
				<g id="Clip-Path: Fill-1" clip-path="url(#cp1)">
					<path id="Fill-1" class="s0" d="m491.6 52.6h2562.8v370.8h-2562.8z"/>
				</g>
			</g>
			<g id="Group-6">
				<g id="Clip-5">
				</g>
				<g id="Clip-Path: Fill-4" clip-path="url(#cp2)">
					<path id="Fill-4" fill-rule="evenodd" class="s1" d="m354.3 25c21.4 0 33.4 24.7 20.2 41.5l-87.2 111h67c22.3 0 33.9 26.4 19.1 42.8l-0.5 0.5-230.2 243.5c-12.9 13.7-34.5 14.3-48.2 1.4-9.7-9.2-13.2-23.2-8.8-35.9l48.9-141.3h-62.9c-19.6 0-31.9-21-22.5-38l0.3-0.5 99.2-171.7c19.1-33 54.2-53.3 92.3-53.3zm-52.8 51.3h-60.4c-19.7 0-38 10.6-47.8 27.6l-77 133.3h54.4c17.5 0 29.8 17 24.5 33.5l-0.2 0.5-34.4 99.5 134.1-141.9h-60.1c-21.2 0-33.2-24.1-20.6-41l0.4-0.5z"/>
				</g>
			</g>
		</g>
	</g>
</svg>
